<svg version="1.1" xmlns="http://www.w3.org/2000/svg" xmlns:xlink="http://www.w3.org/1999/xlink" width="1404" height="1872"><defs/><g><rect fill="#ffffff" stroke="none" x="0" y="0" width="1404" height="1872"/><path fill="none" stroke="#ababab" paint-order="fill stroke markers" d=" M 203 1251 L 203 614 M 225 1258 L 225 607 M 246 1265 L 246 600 M 267 1272 L 267 593 M 288 1279 L 288 586 M 310 1286 L 310 579 M 331 1293 L 331 572 M 352 1300 L 352 565 M 373 1307 L 373 558 M 394 1314 L 394 551 M 416 1321 L 416 544 M 437 1328 L 437 536 M 458 1336 L 458 529 M 479 1343 L 479 522 M 500 1350 L 500 515 M 522 1357 L 522 508 M 543 1364 L 543 501 M 564 1371 L 564 494 M 585 1378 L 585 487 M 607 1385 L 607 480 M 628 1392 L 628 473 M 649 1399 L 649 466 M 670 1406 L 670 459 M 691 1413 L 691 452 M 713 1406 L 713 445 M 734 1399 L 734 452 M 755 1392 L 755 459 M 776 1385 L 776 466 M 797 1378 L 797 473 M 819 1371 L 819 480 M 840 1364 L 840 487 M 861 1357 L 861 494 M 882 1350 L 882 501 M 904 1343 L 904 508 M 925 1336 L 925 515 M 946 1328 L 946 522 M 967 1321 L 967 529 M 988 1314 L 988 536 M 1010 1307 L 1010 544 M 1031 1300 L 1031 551 M 1052 1293 L 1052 558 M 1073 1286 L 1073 565 M 1094 1279 L 1094 572 M 1116 1272 L 1116 579 M 1137 1265 L 1137 586 M 1158 1258 L 1158 593 M 1179 1251 L 1179 600 M 1201 1244 L 1201 607 M 203 614 L 713 445 M 203 628 L 734 452 M 203 643 L 755 459 M 203 657 L 776 466 M 203 671 L 797 473 M 203 685 L 819 480 M 203 699 L 840 487 M 203 713 L 861 494 M 203 727 L 882 501 M 203 742 L 904 508 M 203 756 L 925 515 M 203 770 L 946 522 M 203 784 L 967 529 M 203 798 L 988 536 M 203 812 L 1010 544 M 203 826 L 1031 551 M 203 841 L 1052 558 M 203 855 L 1073 565 M 203 869 L 1094 572 M 203 883 L 1116 579 M 203 897 L 1137 586 M 203 911 L 1158 593 M 203 925 L 1179 600 M 203 940 L 1201 607 M 203 954 L 1201 621 M 203 968 L 1201 635 M 203 982 L 1201 650 M 203 996 L 1201 664 M 203 1010 L 1201 678 M 203 1024 L 1201 692 M 203 1039 L 1201 706 M 203 1053 L 1201 720 M 203 1067 L 1201 734 M 203 1081 L 1201 749 M 203 1095 L 1201 763 M 203 1109 L 1201 777 M 203 1123 L 1201 791 M 203 1138 L 1201 805 M 203 1152 L 1201 819 M 203 1166 L 1201 833 M 203 1180 L 1201 848 M 203 1194 L 1201 862 M 203 1208 L 1201 876 M 203 1222 L 1201 890 M 203 1237 L 1201 904 M 203 1251 L 1201 918 M 1201 932 L 225 1258 M 1201 947 L 246 1265 M 1201 961 L 267 1272 M 1201 975 L 288 1279 M 1201 989 L 310 1286 M 1201 1003 L 331 1293 M 1201 1017 L 352 1300 M 1201 1031 L 373 1307 M 1201 1046 L 394 1314 M 1201 1060 L 416 1321 M 1201 1074 L 437 1328 M 1201 1088 L 458 1336 M 1201 1102 L 479 1343 M 1201 1116 L 500 1350 M 1201 1130 L 522 1357 M 1201 1145 L 543 1364 M 1201 1159 L 564 1371 M 1201 1173 L 585 1378 M 1201 1187 L 607 1385 M 1201 1201 L 628 1392 M 1201 1215 L 649 1399 M 1201 1229 L 670 1406 M 1201 1244 L 691 1413 M 203 1251 L 691 1413 M 203 1237 L 713 1406 M 203 1222 L 734 1399 M 203 1208 L 755 1392 M 203 1194 L 776 1385 M 203 1180 L 797 1378 M 203 1166 L 819 1371 M 203 1152 L 840 1364 M 203 1138 L 861 1357 M 203 1123 L 882 1350 M 203 1109 L 904 1343 M 203 1095 L 925 1336 M 203 1081 L 946 1328 M 203 1067 L 967 1321 M 203 1053 L 988 1314 M 203 1039 L 1010 1307 M 203 1024 L 1031 1300 M 203 1010 L 1052 1293 M 203 996 L 1073 1286 M 203 982 L 1094 1279 M 203 968 L 1116 1272 M 203 954 L 1137 1265 M 203 940 L 1158 1258 M 203 925 L 1179 1251 M 203 911 L 1201 1244 M 203 897 L 1201 1229 M 203 883 L 1201 1215 M 203 869 L 1201 1201 M 203 855 L 1201 1187 M 203 841 L 1201 1173 M 203 826 L 1201 1159 M 203 812 L 1201 1145 M 203 798 L 1201 1130 M 203 784 L 1201 1116 M 203 770 L 1201 1102 M 203 756 L 1201 1088 M 203 742 L 1201 1074 M 203 727 L 1201 1060 M 203 713 L 1201 1046 M 203 699 L 1201 1031 M 203 685 L 1201 1017 M 203 671 L 1201 1003 M 203 657 L 1201 989 M 203 643 L 1201 975 M 203 628 L 1201 961 M 203 614 L 1201 947 M 1201 932 L 225 607 M 1201 918 L 246 600 M 1201 904 L 267 593 M 1201 890 L 288 586 M 1201 876 L 310 579 M 1201 862 L 331 572 M 1201 848 L 352 565 M 1201 833 L 373 558 M 1201 819 L 394 551 M 1201 805 L 416 544 M 1201 791 L 437 536 M 1201 777 L 458 529 M 1201 763 L 479 522 M 1201 749 L 500 515 M 1201 734 L 522 508 M 1201 720 L 543 501 M 1201 706 L 564 494 M 1201 692 L 585 487 M 1201 678 L 607 480 M 1201 664 L 628 473 M 1201 650 L 649 466 M 1201 635 L 670 459 M 1201 621 L 691 452 M 1201 607 L 713 445" stroke-miterlimit="10" stroke-dasharray=""/><path fill="none" stroke="#555555" paint-order="fill stroke markers" d=" M 203 1251 L 691 1413 M 691 1413 L 1201 1244 M 1201 607 L 1201 1244 M 713 445 L 1201 607 M 203 614 L 713 445 M 203 614 L 203 1251 M 691 777 L 1201 607 M 691 777 L 203 614 M 691 777 L 691 1413" stroke-miterlimit="10" stroke-dasharray=""/></g></svg>