<svg version="1.1" xmlns="http://www.w3.org/2000/svg" xmlns:xlink="http://www.w3.org/1999/xlink" width="1404" height="1872"><defs/><g><rect fill="#ffffff" stroke="none" x="0" y="0" width="1404" height="1872"/><path fill="none" stroke="#ababab" paint-order="fill stroke markers" d=" M 9 1619 L 9 243 M 37 1629 L 37 234 M 66 1638 L 66 224 M 94 1648 L 94 215 M 122 1657 L 122 205 M 150 1667 L 150 196 M 179 1676 L 179 187 M 207 1686 L 207 177 M 235 1695 L 235 168 M 264 1704 L 264 158 M 292 1714 L 292 149 M 320 1723 L 320 139 M 348 1733 L 348 130 M 377 1742 L 377 120 M 405 1752 L 405 111 M 433 1761 L 433 102 M 462 1771 L 462 92 M 490 1780 L 490 83 M 518 1789 L 518 73 M 546 1799 L 546 64 M 575 1808 L 575 54 M 603 1818 L 603 45 M 631 1827 L 631 35 M 660 1837 L 660 26 M 688 1846 L 688 16 M 716 1837 L 716 7 M 744 1827 L 744 16 M 773 1818 L 773 26 M 801 1808 L 801 35 M 829 1799 L 829 45 M 858 1789 L 858 54 M 886 1780 L 886 64 M 914 1771 L 914 73 M 942 1761 L 942 83 M 971 1752 L 971 92 M 999 1742 L 999 102 M 1027 1733 L 1027 111 M 1056 1723 L 1056 120 M 1084 1714 L 1084 130 M 1112 1704 L 1112 139 M 1140 1695 L 1140 149 M 1169 1686 L 1169 158 M 1197 1676 L 1197 168 M 1225 1667 L 1225 177 M 1254 1657 L 1254 187 M 1282 1648 L 1282 196 M 1310 1638 L 1310 205 M 1338 1629 L 1338 215 M 1367 1619 L 1367 224 M 1395 1610 L 1395 234 M 9 243 L 716 7 M 9 262 L 744 16 M 9 281 L 773 26 M 9 300 L 801 35 M 9 319 L 829 45 M 9 337 L 858 54 M 9 356 L 886 64 M 9 375 L 914 73 M 9 394 L 942 83 M 9 413 L 971 92 M 9 432 L 999 102 M 9 451 L 1027 111 M 9 469 L 1056 120 M 9 488 L 1084 130 M 9 507 L 1112 139 M 9 526 L 1140 149 M 9 545 L 1169 158 M 9 564 L 1197 168 M 9 583 L 1225 177 M 9 601 L 1254 187 M 9 620 L 1282 196 M 9 639 L 1310 205 M 9 658 L 1338 215 M 9 677 L 1367 224 M 9 696 L 1395 234 M 9 715 L 1395 253 M 9 733 L 1395 271 M 9 752 L 1395 290 M 9 771 L 1395 309 M 9 790 L 1395 328 M 9 809 L 1395 347 M 9 828 L 1395 366 M 9 846 L 1395 385 M 9 865 L 1395 403 M 9 884 L 1395 422 M 9 903 L 1395 441 M 9 922 L 1395 460 M 9 941 L 1395 479 M 9 960 L 1395 498 M 9 978 L 1395 517 M 9 997 L 1395 535 M 9 1016 L 1395 554 M 9 1035 L 1395 573 M 9 1054 L 1395 592 M 9 1073 L 1395 611 M 9 1092 L 1395 630 M 9 1110 L 1395 649 M 9 1129 L 1395 667 M 9 1148 L 1395 686 M 9 1167 L 1395 705 M 9 1186 L 1395 724 M 9 1205 L 1395 743 M 9 1223 L 1395 762 M 9 1242 L 1395 780 M 9 1261 L 1395 799 M 9 1280 L 1395 818 M 9 1299 L 1395 837 M 9 1318 L 1395 856 M 9 1337 L 1395 875 M 9 1355 L 1395 894 M 9 1374 L 1395 912 M 9 1393 L 1395 931 M 9 1412 L 1395 950 M 9 1431 L 1395 969 M 9 1450 L 1395 988 M 9 1469 L 1395 1007 M 9 1487 L 1395 1026 M 9 1506 L 1395 1044 M 9 1525 L 1395 1063 M 9 1544 L 1395 1082 M 9 1563 L 1395 1101 M 9 1582 L 1395 1120 M 9 1601 L 1395 1139 M 9 1619 L 1395 1157 M 1395 1176 L 37 1629 M 1395 1195 L 66 1638 M 1395 1214 L 94 1648 M 1395 1233 L 122 1657 M 1395 1252 L 150 1667 M 1395 1271 L 179 1676 M 1395 1289 L 207 1686 M 1395 1308 L 235 1695 M 1395 1327 L 264 1704 M 1395 1346 L 292 1714 M 1395 1365 L 320 1723 M 1395 1384 L 348 1733 M 1395 1403 L 377 1742 M 1395 1421 L 405 1752 M 1395 1440 L 433 1761 M 1395 1459 L 462 1771 M 1395 1478 L 490 1780 M 1395 1497 L 518 1789 M 1395 1516 L 546 1799 M 1395 1535 L 575 1808 M 1395 1553 L 603 1818 M 1395 1572 L 631 1827 M 1395 1591 L 660 1837 M 1395 1610 L 688 1846 M 9 1619 L 688 1846 M 9 1601 L 716 1837 M 9 1582 L 744 1827 M 9 1563 L 773 1818 M 9 1544 L 801 1808 M 9 1525 L 829 1799 M 9 1506 L 858 1789 M 9 1487 L 886 1780 M 9 1469 L 914 1771 M 9 1450 L 942 1761 M 9 1431 L 971 1752 M 9 1412 L 999 1742 M 9 1393 L 1027 1733 M 9 1374 L 1056 1723 M 9 1355 L 1084 1714 M 9 1337 L 1112 1704 M 9 1318 L 1140 1695 M 9 1299 L 1169 1686 M 9 1280 L 1197 1676 M 9 1261 L 1225 1667 M 9 1242 L 1254 1657 M 9 1223 L 1282 1648 M 9 1205 L 1310 1638 M 9 1186 L 1338 1629 M 9 1167 L 1367 1619 M 9 1148 L 1395 1610 M 9 1129 L 1395 1591 M 9 1110 L 1395 1572 M 9 1092 L 1395 1553 M 9 1073 L 1395 1535 M 9 1054 L 1395 1516 M 9 1035 L 1395 1497 M 9 1016 L 1395 1478 M 9 997 L 1395 1459 M 9 978 L 1395 1440 M 9 960 L 1395 1421 M 9 941 L 1395 1403 M 9 922 L 1395 1384 M 9 903 L 1395 1365 M 9 884 L 1395 1346 M 9 865 L 1395 1327 M 9 846 L 1395 1308 M 9 828 L 1395 1289 M 9 809 L 1395 1271 M 9 790 L 1395 1252 M 9 771 L 1395 1233 M 9 752 L 1395 1214 M 9 733 L 1395 1195 M 9 715 L 1395 1176 M 9 696 L 1395 1157 M 9 677 L 1395 1139 M 9 658 L 1395 1120 M 9 639 L 1395 1101 M 9 620 L 1395 1082 M 9 601 L 1395 1063 M 9 583 L 1395 1044 M 9 564 L 1395 1026 M 9 545 L 1395 1007 M 9 526 L 1395 988 M 9 507 L 1395 969 M 9 488 L 1395 950 M 9 469 L 1395 931 M 9 451 L 1395 912 M 9 432 L 1395 894 M 9 413 L 1395 875 M 9 394 L 1395 856 M 9 375 L 1395 837 M 9 356 L 1395 818 M 9 337 L 1395 799 M 9 319 L 1395 780 M 9 300 L 1395 762 M 9 281 L 1395 743 M 9 262 L 1395 724 M 9 243 L 1395 705 M 1395 686 L 37 234 M 1395 667 L 66 224 M 1395 649 L 94 215 M 1395 630 L 122 205 M 1395 611 L 150 196 M 1395 592 L 179 187 M 1395 573 L 207 177 M 1395 554 L 235 168 M 1395 535 L 264 158 M 1395 517 L 292 149 M 1395 498 L 320 139 M 1395 479 L 348 130 M 1395 460 L 377 120 M 1395 441 L 405 111 M 1395 422 L 433 102 M 1395 403 L 462 92 M 1395 385 L 490 83 M 1395 366 L 518 73 M 1395 347 L 546 64 M 1395 328 L 575 54 M 1395 309 L 603 45 M 1395 290 L 631 35 M 1395 271 L 660 26 M 1395 253 L 688 16 M 1395 234 L 716 7" stroke-miterlimit="10" stroke-dasharray=""/><path fill="none" stroke="#555555" paint-order="fill stroke markers" d=" M 9 1619 L 688 1846 M 688 1846 L 1395 1610 M 1395 234 L 1395 1610 M 716 7 L 1395 234 M 9 243 L 716 7 M 9 243 L 9 1619 M 688 470 L 1395 234 M 688 470 L 9 243 M 688 470 L 688 1846" stroke-miterlimit="10" stroke-dasharray=""/></g></svg>