<svg version="1.1" xmlns="http://www.w3.org/2000/svg" xmlns:xlink="http://www.w3.org/1999/xlink" width="1404" height="1872"><defs/><g><rect fill="#ffffff" stroke="none" x="0" y="0" width="1404" height="1872"/><path fill="none" stroke="#ababab" paint-order="fill stroke markers" d=" M 214 1240 L 214 618 M 257 1254 L 257 604 M 299 1268 L 299 590 M 341 1283 L 341 575 M 384 1297 L 384 561 M 426 1311 L 426 547 M 469 1325 L 469 533 M 511 1339 L 511 519 M 554 1353 L 554 505 M 596 1368 L 596 490 M 638 1382 L 638 476 M 681 1396 L 681 462 M 723 1382 L 723 448 M 766 1368 L 766 462 M 808 1353 L 808 476 M 850 1339 L 850 490 M 893 1325 L 893 505 M 935 1311 L 935 519 M 978 1297 L 978 533 M 1020 1283 L 1020 547 M 1063 1268 L 1063 561 M 1105 1254 L 1105 575 M 1147 1240 L 1147 590 M 1190 1226 L 1190 604 M 214 618 L 723 448 M 214 646 L 766 462 M 214 674 L 808 476 M 214 703 L 850 490 M 214 731 L 893 505 M 214 759 L 935 519 M 214 788 L 978 533 M 214 816 L 1020 547 M 214 844 L 1063 561 M 214 872 L 1105 575 M 214 901 L 1147 590 M 214 929 L 1190 604 M 214 957 L 1190 632 M 214 986 L 1190 660 M 214 1014 L 1190 689 M 214 1042 L 1190 717 M 214 1070 L 1190 745 M 214 1099 L 1190 773 M 214 1127 L 1190 802 M 214 1155 L 1190 830 M 214 1183 L 1190 858 M 214 1212 L 1190 886 M 214 1240 L 1190 915 M 1190 943 L 257 1254 M 1190 971 L 299 1268 M 1190 1000 L 341 1283 M 1190 1028 L 384 1297 M 1190 1056 L 426 1311 M 1190 1084 L 469 1325 M 1190 1113 L 511 1339 M 1190 1141 L 554 1353 M 1190 1169 L 596 1368 M 1190 1198 L 638 1382 M 1190 1226 L 681 1396 M 214 1240 L 681 1396 M 214 1212 L 723 1382 M 214 1183 L 766 1368 M 214 1155 L 808 1353 M 214 1127 L 850 1339 M 214 1099 L 893 1325 M 214 1070 L 935 1311 M 214 1042 L 978 1297 M 214 1014 L 1020 1283 M 214 986 L 1063 1268 M 214 957 L 1105 1254 M 214 929 L 1147 1240 M 214 901 L 1190 1226 M 214 872 L 1190 1198 M 214 844 L 1190 1169 M 214 816 L 1190 1141 M 214 788 L 1190 1113 M 214 759 L 1190 1084 M 214 731 L 1190 1056 M 214 703 L 1190 1028 M 214 674 L 1190 1000 M 214 646 L 1190 971 M 214 618 L 1190 943 M 1190 915 L 257 604 M 1190 886 L 299 590 M 1190 858 L 341 575 M 1190 830 L 384 561 M 1190 802 L 426 547 M 1190 773 L 469 533 M 1190 745 L 511 519 M 1190 717 L 554 505 M 1190 689 L 596 490 M 1190 660 L 638 476 M 1190 632 L 681 462 M 1190 604 L 723 448" stroke-miterlimit="10" stroke-dasharray=""/><path fill="none" stroke="#555555" paint-order="fill stroke markers" d=" M 214 1240 L 681 1396 M 681 1396 L 1190 1226 M 1190 604 L 1190 1226 M 723 448 L 1190 604 M 214 618 L 723 448 M 214 618 L 214 1240 M 681 774 L 1190 604 M 681 774 L 214 618 M 681 774 L 681 1396" stroke-miterlimit="10" stroke-dasharray=""/></g></svg>