<svg version="1.1" xmlns="http://www.w3.org/2000/svg" xmlns:xlink="http://www.w3.org/1999/xlink" width="1404" height="1872"><defs/><g><rect fill="#ffffff" stroke="none" x="0" y="0" width="1404" height="1872"/><path fill="none" stroke="#ababab" paint-order="fill stroke markers" d=" M 221 1209 L 221 644 M 278 1228 L 278 625 M 334 1247 L 334 606 M 391 1266 L 391 587 M 447 1285 L 447 568 M 504 1304 L 504 549 M 561 1323 L 561 530 M 617 1342 L 617 512 M 674 1361 L 674 493 M 730 1342 L 730 474 M 787 1323 L 787 493 M 843 1304 L 843 512 M 900 1285 L 900 530 M 957 1266 L 957 549 M 1013 1247 L 1013 568 M 1070 1228 L 1070 587 M 1126 1209 L 1126 606 M 1183 1190 L 1183 625 M 221 644 L 730 474 M 221 682 L 787 493 M 221 719 L 843 512 M 221 757 L 900 530 M 221 795 L 957 549 M 221 832 L 1013 568 M 221 870 L 1070 587 M 221 908 L 1126 606 M 221 945 L 1183 625 M 221 983 L 1183 663 M 221 1021 L 1183 700 M 221 1059 L 1183 738 M 221 1096 L 1183 776 M 221 1134 L 1183 813 M 221 1172 L 1183 851 M 221 1209 L 1183 889 M 1183 927 L 278 1228 M 1183 964 L 334 1247 M 1183 1002 L 391 1266 M 1183 1040 L 447 1285 M 1183 1077 L 504 1304 M 1183 1115 L 561 1323 M 1183 1153 L 617 1342 M 1183 1190 L 674 1361 M 221 1209 L 674 1361 M 221 1172 L 730 1342 M 221 1134 L 787 1323 M 221 1096 L 843 1304 M 221 1059 L 900 1285 M 221 1021 L 957 1266 M 221 983 L 1013 1247 M 221 945 L 1070 1228 M 221 908 L 1126 1209 M 221 870 L 1183 1190 M 221 832 L 1183 1153 M 221 795 L 1183 1115 M 221 757 L 1183 1077 M 221 719 L 1183 1040 M 221 682 L 1183 1002 M 221 644 L 1183 964 M 1183 927 L 278 625 M 1183 889 L 334 606 M 1183 851 L 391 587 M 1183 813 L 447 568 M 1183 776 L 504 549 M 1183 738 L 561 530 M 1183 700 L 617 512 M 1183 663 L 674 493 M 1183 625 L 730 474" stroke-miterlimit="10" stroke-dasharray=""/><path fill="none" stroke="#555555" paint-order="fill stroke markers" d=" M 221 1209 L 674 1361 M 674 1361 L 1183 1190 M 1183 625 L 1183 1190 M 730 474 L 1183 625 M 221 644 L 730 474 M 221 644 L 221 1209 M 674 795 L 1183 625 M 674 795 L 221 644 M 674 795 L 674 1361" stroke-miterlimit="10" stroke-dasharray=""/></g></svg>