<svg version="1.1" xmlns="http://www.w3.org/2000/svg" xmlns:xlink="http://www.w3.org/1999/xlink" width="1404" height="1872"><defs/><g><rect fill="#ffffff" stroke="none" x="0" y="0" width="1404" height="1872"/><path fill="none" stroke="#ababab" paint-order="fill stroke markers" d=" M 83 1625 L 83 235 M 119 1637 L 119 223 M 154 1649 L 154 211 M 189 1661 L 189 200 M 225 1672 L 225 188 M 260 1684 L 260 176 M 295 1696 L 295 164 M 331 1708 L 331 152 M 366 1720 L 366 141 M 401 1732 L 401 129 M 437 1743 L 437 117 M 472 1755 L 472 105 M 508 1767 L 508 93 M 543 1779 L 543 81 M 578 1791 L 578 70 M 614 1802 L 614 58 M 649 1814 L 649 46 M 684 1826 L 684 34 M 720 1814 L 720 22 M 755 1802 L 755 34 M 790 1791 L 790 46 M 826 1779 L 826 58 M 861 1767 L 861 70 M 896 1755 L 896 81 M 932 1743 L 932 93 M 967 1732 L 967 105 M 1003 1720 L 1003 117 M 1038 1708 L 1038 129 M 1073 1696 L 1073 141 M 1109 1684 L 1109 152 M 1144 1672 L 1144 164 M 1179 1661 L 1179 176 M 1215 1649 L 1215 188 M 1250 1637 L 1250 200 M 1285 1625 L 1285 211 M 1321 1613 L 1321 223 M 83 235 L 720 22 M 83 259 L 755 34 M 83 282 L 790 46 M 83 306 L 826 58 M 83 329 L 861 70 M 83 353 L 896 81 M 83 376 L 932 93 M 83 400 L 967 105 M 83 424 L 1003 117 M 83 447 L 1038 129 M 83 471 L 1073 141 M 83 494 L 1109 152 M 83 518 L 1144 164 M 83 541 L 1179 176 M 83 565 L 1215 188 M 83 588 L 1250 200 M 83 612 L 1285 211 M 83 636 L 1321 223 M 83 659 L 1321 247 M 83 683 L 1321 270 M 83 706 L 1321 294 M 83 730 L 1321 317 M 83 753 L 1321 341 M 83 777 L 1321 365 M 83 801 L 1321 388 M 83 824 L 1321 412 M 83 848 L 1321 435 M 83 871 L 1321 459 M 83 895 L 1321 482 M 83 918 L 1321 506 M 83 942 L 1321 530 M 83 965 L 1321 553 M 83 989 L 1321 577 M 83 1013 L 1321 600 M 83 1036 L 1321 624 M 83 1060 L 1321 647 M 83 1083 L 1321 671 M 83 1107 L 1321 694 M 83 1130 L 1321 718 M 83 1154 L 1321 742 M 83 1178 L 1321 765 M 83 1201 L 1321 789 M 83 1225 L 1321 812 M 83 1248 L 1321 836 M 83 1272 L 1321 859 M 83 1295 L 1321 883 M 83 1319 L 1321 907 M 83 1342 L 1321 930 M 83 1366 L 1321 954 M 83 1390 L 1321 977 M 83 1413 L 1321 1001 M 83 1437 L 1321 1024 M 83 1460 L 1321 1048 M 83 1484 L 1321 1071 M 83 1507 L 1321 1095 M 83 1531 L 1321 1119 M 83 1555 L 1321 1142 M 83 1578 L 1321 1166 M 83 1602 L 1321 1189 M 83 1625 L 1321 1213 M 1321 1236 L 119 1637 M 1321 1260 L 154 1649 M 1321 1284 L 189 1661 M 1321 1307 L 225 1672 M 1321 1331 L 260 1684 M 1321 1354 L 295 1696 M 1321 1378 L 331 1708 M 1321 1401 L 366 1720 M 1321 1425 L 401 1732 M 1321 1448 L 437 1743 M 1321 1472 L 472 1755 M 1321 1496 L 508 1767 M 1321 1519 L 543 1779 M 1321 1543 L 578 1791 M 1321 1566 L 614 1802 M 1321 1590 L 649 1814 M 1321 1613 L 684 1826 M 83 1625 L 684 1826 M 83 1602 L 720 1814 M 83 1578 L 755 1802 M 83 1555 L 790 1791 M 83 1531 L 826 1779 M 83 1507 L 861 1767 M 83 1484 L 896 1755 M 83 1460 L 932 1743 M 83 1437 L 967 1732 M 83 1413 L 1003 1720 M 83 1390 L 1038 1708 M 83 1366 L 1073 1696 M 83 1342 L 1109 1684 M 83 1319 L 1144 1672 M 83 1295 L 1179 1661 M 83 1272 L 1215 1649 M 83 1248 L 1250 1637 M 83 1225 L 1285 1625 M 83 1201 L 1321 1613 M 83 1178 L 1321 1590 M 83 1154 L 1321 1566 M 83 1130 L 1321 1543 M 83 1107 L 1321 1519 M 83 1083 L 1321 1496 M 83 1060 L 1321 1472 M 83 1036 L 1321 1448 M 83 1013 L 1321 1425 M 83 989 L 1321 1401 M 83 965 L 1321 1378 M 83 942 L 1321 1354 M 83 918 L 1321 1331 M 83 895 L 1321 1307 M 83 871 L 1321 1284 M 83 848 L 1321 1260 M 83 824 L 1321 1236 M 83 801 L 1321 1213 M 83 777 L 1321 1189 M 83 753 L 1321 1166 M 83 730 L 1321 1142 M 83 706 L 1321 1119 M 83 683 L 1321 1095 M 83 659 L 1321 1071 M 83 636 L 1321 1048 M 83 612 L 1321 1024 M 83 588 L 1321 1001 M 83 565 L 1321 977 M 83 541 L 1321 954 M 83 518 L 1321 930 M 83 494 L 1321 907 M 83 471 L 1321 883 M 83 447 L 1321 859 M 83 424 L 1321 836 M 83 400 L 1321 812 M 83 376 L 1321 789 M 83 353 L 1321 765 M 83 329 L 1321 742 M 83 306 L 1321 718 M 83 282 L 1321 694 M 83 259 L 1321 671 M 83 235 L 1321 647 M 1321 624 L 119 223 M 1321 600 L 154 211 M 1321 577 L 189 200 M 1321 553 L 225 188 M 1321 530 L 260 176 M 1321 506 L 295 164 M 1321 482 L 331 152 M 1321 459 L 366 141 M 1321 435 L 401 129 M 1321 412 L 437 117 M 1321 388 L 472 105 M 1321 365 L 508 93 M 1321 341 L 543 81 M 1321 317 L 578 70 M 1321 294 L 614 58 M 1321 270 L 649 46 M 1321 247 L 684 34 M 1321 223 L 720 22" stroke-miterlimit="10" stroke-dasharray=""/><path fill="none" stroke="#555555" paint-order="fill stroke markers" d=" M 83 1625 L 684 1826 M 684 1826 L 1321 1613 M 1321 223 L 1321 1613 M 720 22 L 1321 223 M 83 235 L 720 22 M 83 235 L 83 1625 M 684 436 L 1321 223 M 684 436 L 83 235 M 684 436 L 684 1826" stroke-miterlimit="10" stroke-dasharray=""/></g></svg>